<?xml version="1.0" encoding="utf-8"?>
<!-- Generator: Adobe Illustrator 22.1.0, SVG Export Plug-In . SVG Version: 6.00 Build 0)  -->
<svg version="1.1" id="Layer_1" xmlns="http://www.w3.org/2000/svg" xmlns:xlink="http://www.w3.org/1999/xlink" x="0px" y="0px"
	 viewBox="0 0 155.2 163.8" style="enable-background:new 0 0 155.2 163.8;" xml:space="preserve">
<style type="text/css">
	.st0{fill:none;stroke:#000000;stroke-width:3;stroke-miterlimit:10;}
	.st1{fill:#F5841F;stroke:#ED2924;stroke-miterlimit:10;}
</style>
<circle cx="56.8" cy="107" r="56.8"/>
<rect x="73.5" y="52.3" transform="matrix(0.5478 -0.8366 0.8366 0.5478 -14.8913 99.7597)" width="22.7" height="22.7"/>
<path class="st0" d="M84.8,69.7c5.4-15.1,12.7-25.1,12.7-25.1c7.3-12.7,20.7-6,20.7-6"/>
<polygon class="st1" points="155,50.2 120.9,40.5 141.2,69.6 119.3,41.7 118.6,77.1 117.2,41.7 95.9,70 115.6,40.5 81.7,50.8 
	114.9,38.6 81.5,27 115.5,36.6 95.3,7.6 117.2,35.4 117.9,0 119.2,35.4 140.6,7.2 120.9,36.6 154.8,26.3 121.6,38.5 "/>
</svg>
